HIERARCHY
ROOT Hips
{
	OFFSET -0.001795 -0.223333 0.028219
	CHANNELS 6 Xposition Yposition Zposition Zrotation Yrotation Xrotation 
	JOINT LeftUpLeg
	{
		OFFSET 0.069520 -0.091406 -0.006815
		CHANNELS 3 Zrotation Yrotation Xrotation
		JOINT LeftLeg
		{
			OFFSET 0.034277 -0.375199 -0.004496
			CHANNELS 3 Zrotation Yrotation Xrotation
			JOINT LeftFoot
			{
				OFFSET -0.013596 -0.397961 -0.043693
				CHANNELS 3 Zrotation Yrotation Xrotation
				JOINT LeftToe
				{
					OFFSET 0.026358 -0.055791 0.119288
					CHANNELS 3 Zrotation Yrotation Xrotation
					End Site
					{
						OFFSET 0.000000 0.000000 0.000000
					}
				}
			}
		}
	}
	JOINT RightUpLeg
	{
		OFFSET -0.067670 -0.090522 -0.004320
		CHANNELS 3 Zrotation Yrotation Xrotation
		JOINT RightLeg
		{
			OFFSET -0.038290 -0.382569 -0.008850
			CHANNELS 3 Zrotation Yrotation Xrotation
			JOINT RightFoot
			{
				OFFSET 0.015774 -0.398415 -0.042312
				CHANNELS 3 Zrotation Yrotation Xrotation
				JOINT RightToe
				{
					OFFSET -0.025372 -0.048144 0.123348
					CHANNELS 3 Zrotation Yrotation Xrotation
					End Site
					{
						OFFSET 0.000000 0.000000 0.000000
					}
				}
			}
		}
	}
	JOINT Spine
	{
		OFFSET -0.002533 0.108963 -0.026696
		CHANNELS 3 Zrotation Yrotation Xrotation
		JOINT Spine1
		{
			OFFSET 0.005487 0.135180 0.001092
			CHANNELS 3 Zrotation Yrotation Xrotation
			JOINT Spine2
			{
				OFFSET 0.001457 0.052922 0.025425
				CHANNELS 3 Zrotation Yrotation Xrotation
				JOINT Neck
				{
					OFFSET -0.002778 0.213870 -0.042857
					CHANNELS 3 Zrotation Yrotation Xrotation
					JOINT Head
					{
						OFFSET 0.005152 0.064970 0.051349
						CHANNELS 3 Zrotation Yrotation Xrotation
						End Site
						{
							OFFSET 0.000000 0.000000 0.000000
						}
					}
				}
				JOINT LeftShoulder
				{
					OFFSET 0.078845 0.121749 -0.034090
					CHANNELS 3 Zrotation Yrotation Xrotation
					JOINT LeftArm
					{
						OFFSET 0.090977 0.030469 -0.008868
						CHANNELS 3 Zrotation Yrotation Xrotation
						JOINT LeftForeArm
						{
							OFFSET 0.259612 -0.012772 -0.027456
							CHANNELS 3 Zrotation Yrotation Xrotation
							JOINT LeftHand
							{
								OFFSET 0.249234 0.008986 -0.001171
								CHANNELS 3 Zrotation Yrotation Xrotation
								End Site
								{
									OFFSET 0.000000 0.000000 0.000000
								}
							}
						}
					}
				}
				JOINT RightShoulder
				{
					OFFSET -0.081759 0.118833 -0.038615
					CHANNELS 3 Zrotation Yrotation Xrotation
					JOINT RightArm
					{
						OFFSET -0.096012 0.032551 -0.009143
						CHANNELS 3 Zrotation Yrotation Xrotation
						JOINT RightForeArm
						{
							OFFSET -0.253742 -0.013329 -0.021401
							CHANNELS 3 Zrotation Yrotation Xrotation
							JOINT RightHand
							{
								OFFSET -0.255298 0.007772 -0.005559
								CHANNELS 3 Zrotation Yrotation Xrotation
								End Site
								{
									OFFSET 0.000000 0.000000 0.000000
								}
							}
						}
					}
				}
			}
		}
	}
}
MOTION
Frames: 16
Frame Time: 0.050000
0.000000 0.788596 0.000000 -6.197437 24.706901 5.697802 21.688360 -3.870541 7.548577 -12.454472 1.011391 26.065308 15.451045 25.686556 -9.853710 0.000000 0.000000 0.000000 -16.854488 -8.872215 -46.339709 15.399270 -4.594407 14.552458 -17.159948 -28.120288 23.858998 0.000000 0.000000 0.000000 4.689606 -7.408114 39.146842 -5.386135 2.125572 -25.972893 -4.101372 -4.081110 25.435944 15.038529 -7.035425 -22.871313 0.000000 0.000000 0.000000 -10.586934 -27.377842 10.635292 -29.200691 -31.970224 1.856334 4.944954 -38.563696 -0.601717 0.000000 0.000000 0.000000 19.912164 6.029062 4.446887 39.761685 7.218012 -4.038477 5.370941 46.110350 5.115619 0.000000 0.000000 0.000000 
-0.003267 0.789497 0.020412 -3.573383 25.190462 8.712705 20.237435 -3.173032 4.420253 -12.657548 0.908805 27.175679 13.402610 20.740213 -15.888278 0.000000 0.000000 0.000000 -19.295785 -11.410625 -49.469543 15.584883 -4.841737 16.399887 -18.837522 -29.000096 29.672430 0.000000 0.000000 0.000000 4.661738 -7.533046 39.388165 -5.224851 2.100606 -25.607561 -6.055086 -4.848876 24.065331 18.078749 -8.868322 -23.011207 0.000000 0.000000 0.000000 -9.842103 -26.375136 10.268898 -28.283803 -30.098122 1.378681 1.125909 -40.047980 0.777163 0.000000 0.000000 0.000000 24.777082 5.449514 4.336987 31.430830 4.212673 -4.029041 0.897924 47.535284 2.901483 0.000000 0.000000 0.000000 
-0.005958 0.786416 0.042826 -3.394766 22.852599 10.909645 20.447070 -3.168528 4.844440 -14.089065 1.527614 23.781678 14.358266 24.018857 -13.298758 0.000000 0.000000 0.000000 -18.801041 -11.544598 -53.514244 17.178822 -5.665830 19.272836 -18.611721 -29.582985 28.568080 0.000000 0.000000 0.000000 5.678621 -7.086309 37.415480 -4.956334 1.954496 -27.210789 -5.486905 -2.134071 24.938069 22.058963 -10.754667 -24.793219 0.000000 0.000000 0.000000 -11.153804 -25.781941 9.934134 -26.027584 -28.529310 0.704459 2.383681 -41.423786 0.172492 0.000000 0.000000 0.000000 26.097972 1.919837 2.874938 23.752765 6.650794 -3.185646 0.433727 43.080947 2.296330 0.000000 0.000000 0.000000 
-0.008074 0.780664 0.067468 -3.865112 21.101581 11.092522 20.676268 -3.239644 6.220934 -14.098425 1.748195 25.178211 13.668158 22.915242 -15.489152 0.000000 0.000000 0.000000 -19.120174 -11.895827 -56.392802 18.076625 -6.427866 22.735828 -16.405617 -26.935607 31.469297 0.000000 0.000000 0.000000 7.052884 -7.503546 37.701900 -6.816952 2.256135 -26.782390 -4.493746 -2.261545 24.522127 21.345110 -11.206939 -22.134903 0.000000 0.000000 0.000000 -9.877923 -24.279859 9.389798 -23.646521 -28.557039 0.325057 6.028760 -40.337208 -1.092316 0.000000 0.000000 0.000000 22.759799 1.198919 1.788275 21.215380 4.832094 -2.956675 -1.906336 38.150970 1.056977 0.000000 0.000000 0.000000 
-0.010637 0.770072 0.093674 -3.847353 17.961792 10.627453 20.276366 -2.893298 6.558971 -16.091638 2.684680 27.943990 13.829567 24.734244 -19.975701 0.000000 0.000000 0.000000 -18.344546 -10.850211 -59.271449 18.710075 -7.384363 27.895100 -14.111982 -25.417770 27.771347 0.000000 0.000000 0.000000 7.361769 -7.655491 39.574548 -5.772237 1.987420 -27.772269 -5.596816 0.200221 24.236375 22.224462 -12.725348 -19.142555 0.000000 0.000000 0.000000 -7.981685 -24.041378 8.922237 -21.880449 -24.656016 -0.260733 11.225555 -41.781660 -3.368951 0.000000 0.000000 0.000000 23.483439 0.735394 1.737280 15.944631 3.058721 -2.468261 -2.798178 33.899271 0.473004 0.000000 0.000000 0.000000 
-0.014209 0.753792 0.120862 -3.905067 16.068743 9.939656 21.398941 -2.999383 7.299444 -16.479194 3.253720 32.011188 12.977693 23.542764 -18.830293 0.000000 0.000000 0.000000 -17.766806 -10.651665 -63.073622 19.693210 -8.719249 33.749834 -14.231653 -25.933753 28.074958 0.000000 0.000000 0.000000 7.385457 -8.081128 42.514965 -7.266918 2.097919 -30.000505 -3.576729 0.481397 24.952061 21.857965 -13.072043 -18.035467 0.000000 0.000000 0.000000 -5.807390 -23.393386 8.593848 -20.275058 -23.573311 -0.608880 15.102270 -40.193565 -4.654515 0.000000 0.000000 0.000000 21.278969 0.906846 1.524713 15.288646 -1.206481 -2.562093 -2.538822 32.825997 0.435997 0.000000 0.000000 0.000000 
-0.018368 0.735772 0.149896 -4.547781 14.502597 8.595410 24.004435 -3.412555 8.116343 -16.828718 3.816227 34.632739 12.975091 24.463696 -19.186807 0.000000 0.000000 0.000000 -17.991960 -10.482698 -64.719332 22.096573 -10.469332 37.329141 -15.245600 -27.354918 28.627785 0.000000 0.000000 0.000000 7.849033 -8.521687 44.649837 -7.120392 2.116808 -29.608672 -3.935819 0.190893 25.014697 20.373472 -12.527700 -16.881635 0.000000 0.000000 0.000000 -3.639948 -23.553181 8.512451 -18.744656 -20.986927 -0.927806 18.166242 -37.788440 -5.398193 0.000000 0.000000 0.000000 20.537171 1.236130 1.344922 15.089334 -2.742197 -2.547381 -1.173715 31.225165 0.697118 0.000000 0.000000 0.000000 
-0.022688 0.719726 0.182380 -5.871194 13.241608 7.976101 25.113932 -3.869277 10.498943 -15.415059 3.537308 34.616694 13.549195 26.074162 -15.223581 0.000000 0.000000 0.000000 -16.892135 -9.641744 -66.995945 23.497244 -12.032398 41.521993 -17.526413 -30.238652 28.680854 0.000000 0.000000 0.000000 7.204995 -8.301911 46.030145 -6.081321 1.930870 -29.756442 -3.629480 -0.257344 25.125614 19.635646 -11.727647 -17.843367 0.000000 0.000000 0.000000 -0.740718 -23.962085 8.337512 -20.295954 -18.511013 -1.100068 19.774922 -37.000615 -5.768213 0.000000 0.000000 0.000000 20.129436 1.580623 1.244408 17.744979 -3.034114 -2.994582 0.818988 30.874602 1.225293 0.000000 0.000000 0.000000 
-0.025731 0.704728 0.219030 -6.950859 12.969413 7.581788 26.135857 -4.812665 14.568423 -12.779782 2.557299 31.174766 14.386731 27.370373 -11.397301 0.000000 0.000000 0.000000 -16.682465 -9.628430 -68.098580 25.499514 -13.989042 44.770423 -20.269848 -33.501643 28.577211 0.000000 0.000000 0.000000 7.620061 -8.457989 45.998998 -4.504348 1.652951 -30.092947 -4.864291 -1.446246 26.551363 18.593926 -10.319575 -20.596976 0.000000 0.000000 0.000000 0.540763 -23.344495 7.985423 -21.319201 -18.560033 -1.142205 21.917242 -34.759630 -5.926635 0.000000 0.000000 0.000000 19.432764 1.891545 1.094505 22.720528 -2.511750 -3.797390 2.440663 31.102556 1.721116 0.000000 0.000000 0.000000 
-0.027189 0.692767 0.260529 -8.035679 12.336010 7.733213 25.560296 -5.707700 20.301573 -8.981531 1.356026 25.518588 16.594540 30.393931 -3.364662 0.000000 0.000000 0.000000 -17.132237 -9.664590 -68.575311 28.401669 -16.211180 46.617981 -22.750958 -36.401242 28.742649 0.000000 0.000000 0.000000 8.921055 -8.830933 45.341612 -4.505123 1.645767 -29.521293 -5.137025 -4.388683 25.654508 15.709875 -8.658138 -20.888828 0.000000 0.000000 0.000000 -1.925957 -22.965753 8.496743 -20.009398 -17.152748 -1.311307 22.393031 -33.985956 -5.613601 0.000000 0.000000 0.000000 19.781726 3.572502 1.093879 24.332184 -2.228865 -3.745709 4.719421 29.743034 2.072165 0.000000 0.000000 0.000000 
-0.026319 0.686662 0.307226 -8.415299 10.072644 9.325200 22.558921 -5.237852 24.739853 -5.299204 0.468933 20.588878 18.485994 32.129564 5.032663 0.000000 0.000000 0.000000 -16.483501 -8.051576 -69.385359 29.543599 -17.475477 49.245060 -22.915249 -39.477643 20.891442 0.000000 0.000000 0.000000 9.282149 -7.954165 42.743767 -2.890809 1.324333 -28.925399 -6.349457 -6.243219 25.995589 14.074745 -7.602748 -22.188114 0.000000 0.000000 0.000000 -0.483605 -20.988674 7.725429 -23.302896 -16.950481 -1.373599 23.277350 -33.503612 -5.419276 0.000000 0.000000 0.000000 20.106492 4.317162 0.715139 25.177425 -0.524714 -3.442110 4.509200 30.532929 1.993673 0.000000 0.000000 0.000000 
-0.022950 0.688551 0.358374 -9.895761 7.386326 10.032861 18.531154 -4.088864 29.164633 -2.290368 -0.133931 17.048869 18.638106 31.770288 9.641068 0.000000 0.000000 0.000000 -15.172120 -5.580824 -69.161582 30.579499 -18.763701 52.081626 -22.242100 -40.839880 15.997981 0.000000 0.000000 0.000000 11.660146 -7.736481 39.105929 -4.910426 1.616812 -28.689685 -5.829177 -9.499356 26.361826 9.011298 -5.422345 -20.899253 0.000000 0.000000 0.000000 -5.165156 -18.039565 7.932960 -23.324737 -14.266359 -1.993036 21.923074 -34.929636 -4.842503 0.000000 0.000000 0.000000 18.919432 5.689474 0.269954 26.345649 1.407645 -2.992184 5.414929 29.763344 1.938999 0.000000 0.000000 0.000000 
-0.017514 0.698384 0.411578 -10.738661 5.236340 10.721350 16.091453 -2.917264 29.249928 -0.090611 -0.830992 21.505927 13.963079 24.640555 22.581356 0.000000 0.000000 0.000000 -14.683522 -4.087585 -69.245480 31.100004 -20.224955 56.175074 -21.460578 -39.343349 17.998873 0.000000 0.000000 0.000000 13.438546 -7.285967 35.141872 -2.844914 1.205353 -28.632892 -8.157291 -8.278061 26.803401 6.960050 -3.943089 -22.037896 0.000000 0.000000 0.000000 -4.797125 -17.024691 7.394975 -26.878620 -12.360636 -2.417992 20.551358 -37.957780 -4.706944 0.000000 0.000000 0.000000 19.569050 3.913339 -0.760240 26.472046 4.603030 -2.519258 5.266313 31.517277 2.051646 0.000000 0.000000 0.000000 
-0.010613 0.713786 0.462451 -12.341581 1.602389 7.843832 15.625614 -1.875677 25.135740 -2.429639 -0.218748 36.867375 11.173118 21.563321 24.127921 0.000000 0.000000 0.000000 -12.087683 -0.550430 -64.624652 29.828125 -19.737181 59.605408 -19.763018 -36.997045 18.696740 0.000000 0.000000 0.000000 14.746177 -7.075851 34.865941 -4.480576 1.449208 -30.562483 -7.124179 -7.535480 30.519769 8.183758 -4.663132 -25.081138 0.000000 0.000000 0.000000 -2.588073 -13.350788 5.464368 -33.275225 -13.447045 -2.635465 19.175929 -41.361230 -4.112109 0.000000 0.000000 0.000000 13.133226 3.123225 -0.468145 34.328741 7.016489 -3.087848 0.745976 33.681309 0.877720 0.000000 0.000000 0.000000 
0.000214 0.733103 0.507487 -12.902117 -4.679905 3.331337 15.622483 -0.554576 12.674606 -8.477234 6.378034 65.534397 10.147047 20.537692 15.714251 0.000000 0.000000 0.000000 -7.493996 3.941084 -58.234869 25.300028 -15.753930 64.499838 -16.810358 -33.087893 19.056031 0.000000 0.000000 0.000000 12.219273 -5.368957 36.302897 -3.771819 1.306129 -29.635803 -4.942651 -2.631339 28.432737 9.339944 -5.775729 -20.536438 0.000000 0.000000 0.000000 -6.241398 -13.285095 5.794667 -32.607206 -11.366864 -3.230625 14.826361 -42.155778 -2.956801 0.000000 0.000000 0.000000 15.945313 5.174097 0.770805 29.292750 6.100809 -2.858081 -2.003357 35.500336 0.201713 0.000000 0.000000 0.000000 
0.018516 0.753834 0.545910 -13.562683 -11.052625 -3.513151 16.239572 0.670225 -2.058923 -10.426580 14.881436 86.060244 11.388865 22.401905 10.523002 0.000000 0.000000 0.000000 -1.941598 6.232428 -46.533066 20.866123 -9.892808 66.029056 -13.485717 -28.996015 16.130277 0.000000 0.000000 0.000000 9.406204 -3.723570 40.567755 -2.421577 0.983164 -28.686867 -0.731654 4.009576 27.173913 13.348043 -7.870600 -21.110998 0.000000 0.000000 0.000000 -8.779565 -14.080836 5.832067 -32.987793 -11.241042 -3.167305 11.377208 -41.755941 -2.221156 0.000000 0.000000 0.000000 14.195313 4.633893 1.463653 27.370138 7.846546 -2.658584 -7.391291 38.176548 -1.203975 0.000000 0.000000 0.000000 
